<svg width="32" height="32" viewBox="0 0 32 32" fill="none" xmlns="http://www.w3.org/2000/svg">
<path d="M1.3335 5.33331H30.6668V7.99998H1.3335V5.33331ZM1.3335 24H30.6668V26.6666H1.3335V24ZM26.1628 19.8853L25.9308 18.7253H23.3322L22.9188 19.876L20.8362 19.88C22.1762 16.672 23.1695 14.2933 23.8175 12.7493C23.9868 12.3453 24.2882 12.14 24.7308 12.1426C25.0695 12.1453 25.6228 12.1453 26.3908 12.1426L28.0002 19.8826L26.1628 19.8866V19.8853ZM23.9175 17.136H25.5922L24.9655 14.2293L23.9175 17.136ZM10.4962 12.1413L12.5895 12.144L9.3535 19.8853L7.2335 19.884C6.5175 17.124 5.99083 15.076 5.65483 13.744C5.55216 13.3346 5.34816 13.0493 4.9535 12.9146C4.60283 12.7946 4.01883 12.608 3.20016 12.356V12.1426H6.5455C7.12416 12.1426 7.4615 12.4226 7.57083 12.996L8.3975 17.3813L10.4962 12.1413ZM15.4655 12.144L13.8122 19.884L11.8188 19.8813L13.4722 12.1413L15.4655 12.144ZM19.5082 12C20.1028 12 20.8548 12.184 21.2868 12.356L20.9375 13.9613C20.5468 13.804 19.9042 13.592 19.3642 13.6013C18.5775 13.6133 18.0922 13.9426 18.0922 14.2586C18.0922 14.7706 18.9348 15.0293 19.8042 15.5906C20.7948 16.2306 20.9242 16.804 20.9122 17.428C20.8988 18.7226 19.8042 20 17.4935 20C16.4388 19.984 16.0588 19.896 15.2002 19.592L15.5628 17.9173C16.4375 18.2826 16.8095 18.3986 17.5562 18.3986C18.2428 18.3986 18.8308 18.1226 18.8362 17.6413C18.8388 17.2986 18.6295 17.1293 17.8602 16.7053C17.0908 16.2826 16.0135 15.6973 16.0268 14.5186C16.0442 13.012 17.4762 12 19.5068 12H19.5082Z" fill="#001018"/>
</svg>
