<svg width="32" height="32" viewBox="0 0 32 32" fill="none" xmlns="http://www.w3.org/2000/svg">
<g clip-path="url(#clip0_8763_1559)">
<path d="M9.33333 11.3333V8.66667C9.33333 6.89856 10.0357 5.20286 11.286 3.95262C12.5362 2.70238 14.2319 2 16 2C17.7681 2 19.4638 2.70238 20.714 3.95262C21.9643 5.20286 22.6667 6.89856 22.6667 8.66667V11.3333H26.6667C27.0203 11.3333 27.3594 11.4738 27.6095 11.7239C27.8595 11.9739 28 12.313 28 12.6667V28.6667C28 29.0203 27.8595 29.3594 27.6095 29.6095C27.3594 29.8595 27.0203 30 26.6667 30H5.33333C4.97971 30 4.64057 29.8595 4.39052 29.6095C4.14048 29.3594 4 29.0203 4 28.6667V12.6667C4 12.313 4.14048 11.9739 4.39052 11.7239C4.64057 11.4738 4.97971 11.3333 5.33333 11.3333H9.33333ZM9.33333 14H6.66667V27.3333H25.3333V14H22.6667V16.6667H20V14H12V16.6667H9.33333V14ZM12 11.3333H20V8.66667C20 7.6058 19.5786 6.58839 18.8284 5.83824C18.0783 5.08809 17.0609 4.66667 16 4.66667C14.9391 4.66667 13.9217 5.08809 13.1716 5.83824C12.4214 6.58839 12 7.6058 12 8.66667V11.3333Z" fill="#001018"/>
</g>
<defs>
<clipPath id="clip0_8763_1559">
<rect width="32" height="32" fill="white"/>
</clipPath>
</defs>
</svg>
