<svg width="32" height="32" viewBox="0 0 32 32" fill="#5a3e36" xmlns="http://www.w3.org/2000/svg">
<path fill-rule="evenodd" clip-rule="evenodd" d="M29.3332 12C29.3332 7.33333 26.0505 4 21.9998 4C19.5198 4 17.3332 5.33333 15.9998 6.66667C14.6665 5.33333 12.4798 4 9.99984 4C5.99984 4 2.6665 7.33333 2.6665 12C2.6665 20.8012 11.5587 26.0455 15.3678 28.2919C15.5981 28.4278 15.8098 28.5526 15.9998 28.6667C16.1899 28.5526 16.4016 28.4278 16.6319 28.2919C20.441 26.0455 29.3332 20.8012 29.3332 12ZM20.4718 22.5373C19.4798 23.3267 18.4198 24.064 17.2452 24.8053C16.8465 25.056 16.4518 25.2973 15.9998 25.5667C15.5478 25.2973 15.1532 25.056 14.7545 24.804C13.5798 24.064 12.5198 23.3267 11.5265 22.5373C7.5545 19.3773 5.33317 15.9253 5.33317 12C5.33317 8.87467 7.41317 6.66667 9.99984 6.66667C11.4345 6.66667 12.9865 7.42667 14.1145 8.552L15.9998 10.4373L17.8852 8.552C19.0132 7.42667 20.5652 6.66667 21.9998 6.66667C24.6172 6.66667 26.6665 8.85333 26.6665 12C26.6665 15.924 24.4465 19.3773 20.4718 22.5373Z" fill="#5a3e36"/>
</svg>
