<svg width="74" height="74" viewBox="0 0 74 74" fill="#5A3E36" xmlns="http://www.w3.org/2000/svg">
<path d="M50.5399 21.2727C50.4923 24.7325 49.3288 27.8109 47.1992 30.1809C47.1958 30.1844 47.1923 30.1878 47.1889 30.1912C45.9812 31.4034 44.5728 32.2922 43.0215 33.0175C41.1368 33.9029 39.2453 34.3456 37.364 34.3456C35.595 34.3456 33.9586 34.0017 32.4413 33.3104C30.9275 32.6225 29.5939 31.6827 28.4304 30.4772C27.2771 29.2785 26.3756 27.8722 25.753 26.2547C25.1237 24.6508 24.8039 22.9141 24.8039 21.0684C24.8039 19.2228 25.1237 17.4316 25.753 15.8175C26.3756 14.2034 27.2771 12.8004 28.4304 11.595C29.5939 10.3997 30.9275 9.46665 32.4413 8.79241C33.9586 8.12838 35.595 7.79467 37.364 7.79467C39.2861 7.79467 41.2117 8.27822 43.144 9.2351C45.0661 10.2022 46.7127 11.5303 48.0871 13.2193L53.5166 6.85141C52.1388 5.39395 50.5773 4.16464 48.8253 3.16349C47.0801 2.15553 45.2124 1.37573 43.2256 0.827479C41.2423 0.27923 39.2453 0 37.2483 0C34.1049 0 31.2064 0.534629 28.5529 1.59707C25.9027 2.65611 23.569 4.15443 21.5618 6.08181C19.5648 8.00579 18.0101 10.2533 16.9113 12.8072C15.8056 15.3646 15.2579 18.1365 15.2579 21.1263C15.2579 21.174 15.2579 21.2251 15.2613 21.2727H0L9.26701 74H65.0086L74 21.2727H50.5399ZM56.888 64.4516H17.2481L11.3388 30.8211H17.4896C18.5238 32.8983 19.8506 34.7542 21.4801 36.3751C23.4193 38.3264 25.7054 39.8417 28.3181 40.9246C30.9275 42.0075 33.7851 42.5489 36.8877 42.5489C38.8949 42.5489 40.8987 42.2356 42.9058 41.6295C44.9096 41.0233 46.8283 40.1618 48.6518 39.0653C49.373 38.6294 50.067 38.1833 51.0196 37.4716C52.2239 36.4092 53.2717 35.3467 54.4182 33.6203C55.0169 32.7111 55.551 31.7814 56.0239 30.8211H62.6204L56.888 64.4516Z" fill="#5A3E36"/>
</svg>
