<svg width="32" height="32" viewBox="0 0 32 32" fill="none" xmlns="http://www.w3.org/2000/svg">
<path d="M5.33008 30.5656C5.33008 27.737 6.45371 25.0244 8.45378 23.0243C10.4539 21.0242 13.1665 19.9006 15.9951 19.9006C18.8236 19.9006 21.5363 21.0242 23.5364 23.0243C25.5364 25.0244 26.6601 27.737 26.6601 30.5656H23.9938C23.9938 28.4442 23.1511 26.4097 21.651 24.9096C20.151 23.4095 18.1165 22.5668 15.9951 22.5668C13.8737 22.5668 11.8392 23.4095 10.3391 24.9096C8.83905 26.4097 7.99633 28.4442 7.99633 30.5656H5.33008ZM15.9951 18.5674C11.5758 18.5674 7.99633 14.988 7.99633 10.5687C7.99633 6.14939 11.5758 2.56995 15.9951 2.56995C20.4144 2.56995 23.9938 6.14939 23.9938 10.5687C23.9938 14.988 20.4144 18.5674 15.9951 18.5674ZM15.9951 15.9012C18.9413 15.9012 21.3276 13.5149 21.3276 10.5687C21.3276 7.62249 18.9413 5.2362 15.9951 5.2362C13.0489 5.2362 10.6626 7.62249 10.6626 10.5687C10.6626 13.5149 13.0489 15.9012 15.9951 15.9012Z" fill="#001018"/>
</svg>
