<svg width="32" height="32" viewBox="0 0 32 32" fill="none" xmlns="http://www.w3.org/2000/svg">
<path fill-rule="evenodd" clip-rule="evenodd" d="M29.7521 27.8653L24.0414 22.156C25.7444 20.0316 26.6706 17.3893 26.6667 14.6666C26.6667 8.04263 21.2907 2.66663 14.6667 2.66663C8.04275 2.66663 2.66675 8.04263 2.66675 14.6666C2.66675 21.2906 8.04275 26.6666 14.6667 26.6666C17.3894 26.6705 20.0317 25.7443 22.1561 24.0413L27.8654 29.752L29.7521 27.8653ZM24.0001 14.6666C24.0039 17.0939 23.0589 19.4265 21.3667 21.1666L21.1667 21.3666C19.4266 23.0588 17.094 24.0038 14.6667 24C9.50941 24 5.33341 19.8226 5.33341 14.6666C5.33341 9.50929 9.50941 5.33329 14.6667 5.33329C19.8227 5.33329 24.0001 9.50929 24.0001 14.6666Z" fill="#001018"/>
</svg>
