<svg width="32" height="32" viewBox="0 0 32 32" fill="#ffffff" xmlns="http://www.w3.org/2000/svg">
<path fill-rule="evenodd" clip-rule="evenodd" d="M15.9998 29.3333C8.63584 29.3333 2.6665 23.364 2.6665 16C2.6665 8.63596 8.63584 2.66663 15.9998 2.66663C23.3638 2.66663 29.3332 8.63596 29.3332 16C29.3332 23.364 23.3638 29.3333 15.9998 29.3333ZM15.9998 26.6666C21.8909 26.6666 26.6665 21.891 26.6665 16C26.6665 10.1089 21.8909 5.33329 15.9998 5.33329C10.1088 5.33329 5.33317 10.1089 5.33317 16C5.33317 21.891 10.1088 26.6666 15.9998 26.6666ZM15.9998 22.6666C18.9454 22.6666 21.3332 20.2788 21.3332 17.3333H10.6665C10.6665 20.2788 13.0543 22.6666 15.9998 22.6666ZM10.6665 14.6666C9.56193 14.6666 8.6665 13.7712 8.6665 12.6666C8.6665 11.5621 9.56193 10.6666 10.6665 10.6666C11.7711 10.6666 12.6665 11.5621 12.6665 12.6666C12.6665 13.7712 11.7711 14.6666 10.6665 14.6666ZM19.3332 12.6666C19.3332 13.7712 20.2286 14.6666 21.3332 14.6666C22.4377 14.6666 23.3332 13.7712 23.3332 12.6666C23.3332 11.5621 22.4377 10.6666 21.3332 10.6666C20.2286 10.6666 19.3332 11.5621 19.3332 12.6666Z" fill="#ffffff"/>
</svg>
