<svg width="32" height="32" viewBox="0 0 32 32" fill="none" xmlns="http://www.w3.org/2000/svg">
<g clip-path="url(#clip0_28_518)">
<path d="M11.9535 24C11.795 25.1124 11.2404 26.1302 10.3917 26.8666C9.54302 27.6029 8.45712 28.0084 7.3335 28.0084C6.20987 28.0084 5.12397 27.6029 4.27526 26.8666C3.42654 26.1302 2.872 25.1124 2.7135 24H1.3335V8.00001C1.3335 7.64638 1.47397 7.30724 1.72402 7.0572C1.97407 6.80715 2.31321 6.66667 2.66683 6.66667H21.3335C21.6871 6.66667 22.0263 6.80715 22.2763 7.0572C22.5264 7.30724 22.6668 7.64638 22.6668 8.00001V10.6667H26.6668L30.6668 16.0747V24H27.9535C27.795 25.1124 27.2404 26.1302 26.3917 26.8666C25.543 27.6029 24.4571 28.0084 23.3335 28.0084C22.2099 28.0084 21.124 27.6029 20.2753 26.8666C19.4265 26.1302 18.872 25.1124 18.7135 24H11.9535ZM20.0002 9.33334H4.00016V20.0667C4.52625 19.5296 5.1743 19.1276 5.88917 18.8948C6.60403 18.6621 7.36455 18.6055 8.106 18.7299C8.84744 18.8542 9.54786 19.1559 10.1476 19.6092C10.7474 20.0625 11.2288 20.654 11.5508 21.3333H19.1162C19.3402 20.8627 19.6402 20.4347 20.0002 20.0667V9.33334ZM22.6668 17.3333H28.0002V16.9533L25.3228 13.3333H22.6668V17.3333ZM23.3335 25.3333C23.8641 25.3333 24.373 25.1226 24.7482 24.7474C25.1234 24.3722 25.3342 23.8633 25.3342 23.3327C25.3342 22.8021 25.1234 22.2932 24.7482 21.918C24.373 21.5428 23.8641 21.332 23.3335 21.332C22.8029 21.332 22.294 21.5428 21.9188 21.918C21.5436 22.2932 21.3328 22.8021 21.3328 23.3327C21.3328 23.8633 21.5436 24.3722 21.9188 24.7474C22.294 25.1226 22.8029 25.3333 23.3335 25.3333ZM9.3335 23.3333C9.3335 23.0707 9.28176 22.8106 9.18125 22.568C9.08075 22.3253 8.93343 22.1048 8.74771 21.9191C8.56199 21.7334 8.34151 21.5861 8.09886 21.4856C7.85621 21.3851 7.59614 21.3333 7.3335 21.3333C7.07085 21.3333 6.81078 21.3851 6.56813 21.4856C6.32548 21.5861 6.105 21.7334 5.91928 21.9191C5.73356 22.1048 5.58625 22.3253 5.48574 22.568C5.38523 22.8106 5.3335 23.0707 5.3335 23.3333C5.3335 23.8638 5.54421 24.3725 5.91928 24.7476C6.29435 25.1226 6.80306 25.3333 7.3335 25.3333C7.86393 25.3333 8.37264 25.1226 8.74771 24.7476C9.12278 24.3725 9.3335 23.8638 9.3335 23.3333Z" fill="#001018"/>
</g>
<defs>
<clipPath id="clip0_28_518">
<rect width="32" height="32" fill="white"/>
</clipPath>
</defs>
</svg>
