<svg width="32" height="32" viewBox="0 0 32 32" fill="#C4C4C4" xmlns="http://www.w3.org/2000/svg">
<path fill-rule="evenodd" clip-rule="evenodd" d="M2.66663 16C2.66663 23.364 8.63596 29.3333 16 29.3333C23.364 29.3333 29.3333 23.364 29.3333 16C29.3333 8.63596 23.364 2.66663 16 2.66663C8.63596 2.66663 2.66663 8.63596 2.66663 16ZM26.6666 16C26.6666 21.891 21.891 26.6666 16 26.6666C10.1089 26.6666 5.33329 21.891 5.33329 16C5.33329 10.1089 10.1089 5.33329 16 5.33329C21.891 5.33329 26.6666 10.1089 26.6666 16ZM17.3333 20V22.6666H14.6666V20H17.3333ZM17.3333 17.3333V9.33329H14.6666V17.3333H17.3333Z" fill="#C4C4C4"/>
</svg>
