<svg width="390" height="844" viewBox="0 0 390 844" fill="none" xmlns="http://www.w3.org/2000/svg">
<rect width="390" height="844" fill="white"/>
<g clip-path="url(#clip0_115_947)">
<path d="M156.497 414.486C154.856 414.486 153.606 415.883 152.836 417.332C152.621 417.738 152.357 418.115 152.048 418.459C152.047 418.461 152.045 418.462 152.044 418.464C151.505 419.004 150.877 419.401 150.185 419.724C149.345 420.119 148.501 420.316 147.662 420.316C146.873 420.316 146.144 420.163 145.467 419.855C144.792 419.548 144.197 419.129 143.678 418.591C143.164 418.057 142.762 417.429 142.484 416.708C142.204 415.993 142.061 415.218 142.061 414.395C142.061 413.572 142.204 412.774 142.484 412.054C142.762 411.334 143.164 410.708 143.678 410.171C144.197 409.638 144.792 409.222 145.467 408.921C146.144 408.625 146.873 408.476 147.662 408.476C148.519 408.476 149.378 408.692 150.24 409.118C150.455 409.227 150.663 409.345 150.863 409.474C151.797 410.075 153.109 410.116 153.829 409.271C154.419 408.579 154.403 407.537 153.673 406.997C153.386 406.785 153.087 406.59 152.773 406.411C151.995 405.961 151.162 405.614 150.276 405.369C149.392 405.125 148.501 405 147.611 405C146.209 405 144.916 405.238 143.733 405.712C142.551 406.184 141.51 406.853 140.615 407.712C139.725 408.57 139.032 409.572 138.542 410.711C138.048 411.852 137.804 413.088 137.804 414.421C137.804 414.442 137.804 414.465 137.806 414.486H134.573C132.709 414.486 131.296 416.169 131.619 418.006L134.697 435.519C134.949 436.954 136.195 438 137.651 438H157.459C158.921 438 160.17 436.946 160.416 435.504L163.402 417.991C163.715 416.159 162.303 414.486 160.445 414.486H156.497ZM156.369 433.742H138.692L136.057 418.745H138.799C139.261 419.671 139.852 420.499 140.579 421.221C141.444 422.091 142.463 422.767 143.628 423.25C144.792 423.733 146.066 423.975 147.45 423.975C148.345 423.975 149.239 423.835 150.134 423.564C151.027 423.294 151.883 422.91 152.696 422.421C153.018 422.227 153.327 422.028 153.752 421.71C154.289 421.237 154.756 420.763 155.268 419.993C155.535 419.587 155.773 419.173 155.984 418.745H158.925L156.369 433.742Z" fill="#5A3E36"/>
</g>
<path d="M189.976 416.84C189.187 415.944 188.248 415.24 187.16 414.728C186.072 414.195 184.984 413.928 183.896 413.928C182.851 413.928 181.869 414.131 180.952 414.536C180.056 414.92 179.256 415.475 178.552 416.2C177.869 416.904 177.336 417.725 176.952 418.664C176.568 419.603 176.376 420.616 176.376 421.704C176.376 422.792 176.568 423.816 176.952 424.776C177.336 425.715 177.869 426.536 178.552 427.24C179.256 427.944 180.056 428.499 180.952 428.904C181.869 429.309 182.851 429.512 183.896 429.512C184.984 429.512 186.061 429.277 187.128 428.808C188.195 428.317 189.144 427.656 189.976 426.824L192.504 429.48C191.757 430.248 190.893 430.92 189.912 431.496C188.952 432.072 187.939 432.52 186.872 432.84C185.827 433.139 184.76 433.288 183.672 433.288C182.029 433.288 180.493 433 179.064 432.424C177.656 431.827 176.419 431.005 175.352 429.96C174.307 428.915 173.485 427.688 172.888 426.28C172.291 424.872 171.992 423.368 171.992 421.768C171.992 420.147 172.291 418.653 172.888 417.288C173.485 415.901 174.328 414.685 175.416 413.64C176.504 412.595 177.752 411.784 179.16 411.208C180.589 410.632 182.147 410.344 183.832 410.344C184.92 410.344 185.976 410.493 187 410.792C188.045 411.069 189.037 411.475 189.976 412.008C190.915 412.52 191.747 413.149 192.472 413.896L189.976 416.84ZM202.918 410.6H207.302L216.998 433H212.422L204.966 414.92L197.542 433H193.062L202.918 410.6ZM198.214 424.616H211.558V428.104H198.214V424.616ZM229.096 410.6C231.997 410.6 234.237 411.272 235.816 412.616C237.395 413.96 238.184 415.848 238.184 418.28C238.184 420.819 237.395 422.792 235.816 424.2C234.237 425.608 231.997 426.312 229.096 426.312H224.04V433H219.752V410.6H229.096ZM229.096 422.76C230.696 422.76 231.933 422.397 232.808 421.672C233.683 420.947 234.12 419.848 234.12 418.376C234.12 416.968 233.683 415.923 232.808 415.24C231.933 414.536 230.696 414.184 229.096 414.184H224.04V422.76H229.096ZM228.936 424.68H233.128L238.632 433H233.768L228.936 424.68ZM240.381 410.6H258.653V414.216H251.677V433H247.357V414.216H240.381V410.6Z" fill="#5A3E36"/>
<defs>
<clipPath id="clip0_115_947">
<rect width="33" height="33" fill="white" transform="translate(131 405)"/>
</clipPath>
</defs>
</svg>
