<svg width="107" height="107" viewBox="0 0 107 107" fill="none" xmlns="http://www.w3.org/2000/svg">
<path d="M107 53.5C107 83.0472 83.0472 107 53.5 107C23.9528 107 0 83.0472 0 53.5C0 23.9528 23.9528 0 53.5 0C83.0472 0 107 23.9528 107 53.5Z" fill="#FAF3E8"/>
<mask id="mask0_1_2" style="mask-type:luminance" maskUnits="userSpaceOnUse" x="17" y="17" width="74" height="74">
<path d="M91 17H17V91H91V17Z" fill="white"/>
</mask>
<g mask="url(#mask0_1_2)">
<path d="M91 17H17V91H91V17Z" fill="#FAF3E8"/>
<path d="M70.4989 38.2727C68.8581 38.2727 67.5586 39.6049 67.2141 41.2091C66.727 43.4766 65.7044 45.5057 64.1992 47.1809C64.1957 47.1844 64.1923 47.1878 64.1889 47.1912C62.9812 48.4034 61.5728 49.2922 60.0215 50.0175C58.1368 50.9029 56.2453 51.3456 54.364 51.3456C52.595 51.3456 50.9586 51.0017 49.4413 50.3104C47.9275 49.6225 46.5939 48.6827 45.4304 47.4772C44.2771 46.2785 43.3756 44.8722 42.753 43.2547C42.1237 41.6508 41.8039 39.9141 41.8039 38.0684C41.8039 36.2228 42.1237 34.4316 42.753 32.8175C43.3756 31.2034 44.2771 29.8004 45.4304 28.595C46.5939 27.3997 47.9275 26.4667 49.4413 25.7924C50.9586 25.1284 52.595 24.7947 54.364 24.7947C56.2861 24.7947 58.2117 25.2782 60.144 26.2351C60.986 26.6587 61.7751 27.1517 62.5116 27.7138C64.0013 28.8508 66.2079 28.9048 67.4237 27.4788L68.7689 25.9012C69.7631 24.7352 69.7332 22.986 68.5428 22.0211C67.6938 21.333 66.7883 20.7138 65.8253 20.1635C64.0801 19.1555 62.2124 18.3757 60.2256 17.8275C58.2423 17.2792 56.2453 17 54.2483 17C51.1049 17 48.2064 17.5346 45.5529 18.5971C42.9027 19.6561 40.569 21.1544 38.5618 23.0818C36.5648 25.0058 35.0101 27.2533 33.9113 29.8072C32.8056 32.3646 32.2579 35.1365 32.2579 38.1263C32.2579 38.174 32.2579 38.2251 32.2613 38.2727H20.5732C18.7087 38.2727 17.2958 39.9556 17.6185 41.7921L25.831 88.5193C26.0831 89.9538 27.3292 91 28.7857 91H79.4768C80.9391 91 82.1883 89.9458 82.4341 88.5043L90.4024 41.7771C90.7148 39.9451 89.3035 38.2727 87.4451 38.2727H70.4989ZM73.888 81.4516H34.2481L28.3388 47.8211H34.4896C35.5238 49.8983 36.8506 51.7542 38.4801 53.3751C40.4193 55.3264 42.7054 56.8417 45.3181 57.9246C47.9275 59.0075 50.7851 59.5489 53.8877 59.5489C55.8949 59.5489 57.8987 59.2356 59.9058 58.6295C61.9096 58.0233 63.8283 57.1618 65.6518 56.0653C66.373 55.6294 67.067 55.1833 68.0196 54.4716C69.2239 53.4092 70.2717 52.3467 71.4182 50.6203C72.0169 49.7111 72.551 48.7814 73.0239 47.8211H79.6204L73.888 81.4516Z" fill="#5A3E36"/>
</g>
</svg>
